<?xml version="1.0" standalone="no"?>
<!DOCTYPE svg PUBLIC "-//W3C//DTD SVG 20010904//EN"
 "http://www.w3.org/TR/2001/REC-SVG-20010904/DTD/svg10.dtd">
<svg version="1.0" xmlns="http://www.w3.org/2000/svg"
 width="512.000000pt" height="512.000000pt" viewBox="0 0 512.000000 512.000000"
 preserveAspectRatio="xMidYMid meet">

<g transform="translate(0.000000,512.000000) scale(0.100000,-0.100000)"
fill="rgb(140, 186, 81)" stroke="none">
<path d="M2254 5085 c-90 -20 -150 -46 -249 -107 -831 -513 -1331 -824 -1421
-883 -189 -127 -284 -246 -332 -419 -16 -56 -17 -155 -17 -1146 l0 -1085 28
-82 c55 -164 173 -300 322 -373 167 -81 342 -78 515 10 25 12 206 116 403 231
196 115 359 209 362 209 3 0 5 -225 5 -500 l0 -500 23 -14 c12 -8 118 -76 236
-151 117 -75 220 -139 227 -142 11 -4 13 180 11 1059 -2 1180 2 1106 -69 1242
-49 93 -172 209 -291 276 l-97 55 22 18 c33 25 610 408 624 414 10 4 536 -344
632 -418 l23 -18 -53 -27 c-165 -82 -293 -198 -344 -309 -61 -134 -58 -69 -62
-1239 l-3 -1068 38 23 c21 13 116 74 210 136 95 62 191 122 213 133 l40 20 0
505 c0 278 2 505 3 505 2 0 171 -96 374 -214 204 -118 394 -226 423 -241 59
-30 163 -55 230 -55 124 0 299 68 397 155 68 60 147 180 172 261 38 123 41
200 41 1232 0 1116 1 1090 -67 1232 -45 93 -168 219 -294 299 -231 146 -1489
914 -1534 937 -101 49 -140 54 -420 53 -176 -1 -280 -5 -321 -14z m506 -503
c30 -12 89 -41 130 -65 157 -92 1367 -840 1400 -866 19 -15 46 -48 60 -72 l25
-44 0 -1003 0 -1004 -34 -30 c-30 -27 -39 -30 -86 -26 -46 4 -101 32 -486 253
-549 314 -506 286 -519 335 -22 82 19 155 118 212 135 76 768 450 776 458 4 5
-349 247 -786 538 l-795 530 -774 -515 c-426 -283 -782 -523 -793 -533 -23
-22 -57 1 412 -277 188 -111 363 -217 388 -234 48 -33 83 -92 84 -139 0 -38
-35 -88 -83 -116 -335 -198 -862 -498 -897 -511 -85 -30 -144 7 -155 98 -3 30
-5 479 -3 999 l3 946 25 49 c18 35 44 64 85 94 75 55 1359 852 1438 892 96 49
148 59 287 55 98 -2 137 -8 180 -24z"/>
</g>
</svg>
