<?xml version="1.0" standalone="no"?>
<!DOCTYPE svg PUBLIC "-//W3C//DTD SVG 20010904//EN"
 "http://www.w3.org/TR/2001/REC-SVG-20010904/DTD/svg10.dtd">
<svg version="1.0" xmlns="http://www.w3.org/2000/svg"
 width="406.000000pt" height="150.000000pt" viewBox="0 0 406.000000 150.000000"
 preserveAspectRatio="xMidYMid meet">

<g transform="translate(0.000000,150.000000) scale(0.100000,-0.100000)"
fill="#000000" stroke="none">
<path d="M0 750 l0 -750 2030 0 2030 0 0 750 0 750 -2030 0 -2030 0 0 -750z
m816 404 c168 -102 218 -137 231 -164 9 -17 13 -85 13 -223 0 -215 -5 -240
-54 -267 -42 -22 -79 -16 -155 28 -40 23 -75 42 -77 42 -2 0 -4 -39 -4 -87 l0
-88 -35 -22 c-19 -13 -39 -23 -44 -23 -6 0 -9 78 -8 196 l2 196 38 33 39 34
-55 36 -55 37 -56 -36 -56 -36 38 -34 37 -34 3 -196 c2 -108 0 -196 -4 -196
-3 0 -24 10 -45 22 l-38 21 -3 89 -3 88 -65 -39 c-36 -22 -78 -43 -92 -46 -39
-10 -98 21 -114 61 -20 47 -20 391 0 438 11 27 42 51 167 128 85 53 161 98
169 101 8 3 38 6 66 6 46 1 62 -6 160 -65z m528 -175 c29 -14 45 -48 49 -104
2 -37 0 -40 -25 -43 -26 -3 -28 -1 -28 33 0 55 -15 75 -56 75 -47 0 -54 -22
-54 -173 0 -140 10 -167 61 -167 34 0 49 27 49 86 0 29 3 34 24 34 33 0 38
-12 30 -67 -14 -92 -93 -131 -171 -83 -42 25 -53 67 -53 210 0 127 14 174 60
197 31 16 81 16 114 2z m166 -64 l0 -76 30 16 c37 19 49 19 72 -2 16 -14 18
-33 18 -160 l0 -144 -27 3 -28 3 -3 133 -3 133 -27 -3 -27 -3 -5 -130 -5 -130
-25 0 -25 0 -3 218 -2 217 30 0 30 0 0 -75z m462 -135 c2 -116 2 -215 0 -220
-2 -6 -15 -10 -28 -10 l-24 0 0 220 0 220 25 0 24 0 3 -210z m126 -7 l-3 -218
-27 -3 -28 -3 0 220 0 221 30 0 30 0 -2 -217z m576 206 c29 -14 45 -48 49
-104 2 -37 0 -40 -25 -43 -26 -3 -28 -1 -28 35 0 54 -18 75 -60 71 -44 -4 -48
-18 -49 -173 -1 -138 9 -165 60 -165 34 0 49 27 49 86 0 29 3 34 24 34 14 0
28 -5 31 -10 12 -19 -7 -102 -29 -127 -30 -35 -99 -42 -143 -14 -42 27 -53 69
-53 211 0 127 14 174 60 197 31 16 81 16 114 2z m-847 -133 c28 -24 28 -26 28
-136 0 -110 0 -112 -28 -136 -16 -13 -41 -24 -57 -24 -16 0 -41 11 -57 24 -28
24 -28 26 -28 136 0 110 0 112 28 136 16 13 41 24 57 24 16 0 41 -11 57 -24z
m470 0 c26 -23 28 -30 32 -112 2 -48 -2 -104 -8 -124 -18 -61 -88 -79 -138
-36 -28 24 -28 26 -28 136 0 110 0 112 28 136 36 31 78 31 114 0z m837 14 c31
-12 42 -32 51 -97 l7 -52 -64 -3 -63 -3 2 -49 c1 -27 6 -53 12 -59 17 -17 45
5 49 37 3 21 9 26 31 26 25 0 27 -3 23 -35 -6 -50 -44 -79 -97 -72 -63 9 -75
32 -75 148 0 54 5 109 11 123 18 40 64 55 113 36z m262 -4 c17 -13 19 -27 19
-158 l0 -143 -27 -3 -27 -3 -3 133 c-3 128 -4 133 -25 136 -35 5 -45 -29 -43
-142 3 -130 4 -126 -25 -126 l-25 0 0 155 0 155 31 0 c17 0 28 -4 24 -10 -8
-14 -2 -13 31 5 36 19 45 19 70 1z m214 -4 c13 -11 23 -33 27 -60 5 -40 4 -42
-21 -42 -19 0 -26 5 -26 19 0 34 -12 51 -35 51 -28 0 -35 -21 -35 -118 0 -77
11 -112 35 -112 17 0 35 30 35 59 0 16 6 21 26 21 25 0 26 -2 21 -42 -7 -53
-35 -78 -87 -78 -30 0 -43 6 -59 26 -18 23 -21 41 -21 136 0 102 1 110 25 133
29 30 83 33 115 7z m219 -7 c12 -12 17 -47 22 -148 3 -73 2 -136 -2 -140 -11
-14 -49 3 -49 21 0 13 -3 12 -16 -6 -18 -26 -60 -29 -86 -5 -22 20 -24 89 -3
120 8 11 35 30 60 42 46 21 49 28 39 69 -9 32 -52 30 -60 -3 -8 -33 -54 -36
-54 -4 0 30 18 59 43 69 29 13 87 4 106 -15z m-999 -102 c0 -65 4 -124 9 -132
6 -9 18 -11 35 -7 l26 6 0 125 0 125 30 0 30 0 0 -149 c0 -127 -2 -150 -16
-155 -27 -10 -44 -7 -44 9 0 14 -3 14 -30 0 -16 -8 -37 -15 -48 -15 -37 0 -42
19 -42 167 l0 143 25 0 25 0 0 -117z"/>
<path d="M519 1067 c-154 -93 -163 -99 -176 -116 -9 -11 -13 -64 -13 -188 0
-146 2 -175 15 -179 19 -8 179 86 183 108 2 10 -22 30 -73 59 -41 23 -74 46
-73 51 2 4 63 48 137 97 l134 89 137 -91 c76 -51 136 -95 134 -99 -3 -4 -34
-24 -68 -43 -86 -48 -97 -62 -68 -85 35 -29 149 -90 166 -90 14 0 16 23 16
183 0 163 -2 186 -17 199 -10 8 -75 49 -144 91 -84 51 -136 77 -156 77 -20 0
-67 -22 -134 -63z"/>
<path d="M1747 814 c-4 -4 -7 -51 -7 -104 0 -75 4 -100 15 -110 12 -10 18 -10
30 0 13 10 15 33 13 114 -3 93 -5 101 -23 104 -12 2 -24 0 -28 -4z"/>
<path d="M2217 814 c-4 -4 -7 -51 -7 -104 0 -75 4 -100 15 -110 12 -10 18 -10
30 0 13 10 15 33 13 114 -3 93 -5 101 -23 104 -12 2 -24 0 -28 -4z"/>
<path d="M3070 795 c-17 -46 -13 -55 26 -55 35 0 35 1 32 38 -2 30 -7 38 -25
40 -17 3 -26 -3 -33 -23z"/>
<path d="M3756 684 c-27 -28 -32 -49 -17 -73 8 -12 14 -13 35 -3 22 10 26 18
26 57 0 25 -4 45 -9 45 -4 0 -20 -12 -35 -26z"/>
</g>
</svg>
