<?xml version="1.0" standalone="no"?>
<!DOCTYPE svg PUBLIC "-//W3C//DTD SVG 20010904//EN"
 "http://www.w3.org/TR/2001/REC-SVG-20010904/DTD/svg10.dtd">
<svg version="1.0" xmlns="http://www.w3.org/2000/svg"
 width="1023.000000pt" height="1025.000000pt" viewBox="0 0 1023.000000 1025.000000"
 preserveAspectRatio="xMidYMid meet">

<g transform="translate(0.000000,1025.000000) scale(0.100000,-0.100000)"
fill="#FFFFFF" stroke="none">
<path d="M339 10114 c-216 -133 -243 -153 -265 -196 -21 -40 -20 -587 1 -627
21 -41 70 -79 112 -87 38 -7 79 10 221 92 l62 36 0 -126 0 -125 60 -41 60 -41
0 272 c0 306 -2 318 -71 364 l-40 26 23 18 c13 10 49 34 81 54 l57 37 81 -54
81 -54 -39 -25 c-70 -44 -73 -60 -73 -361 0 -146 3 -266 6 -266 3 0 30 15 59
33 l54 32 3 127 3 126 110 -61 c150 -85 202 -83 269 7 20 26 21 42 24 325 3
296 3 297 -20 331 -26 39 -61 64 -297 209 l-164 101 -97 0 -97 0 -204 -126z
m507 -90 c88 -53 177 -108 199 -123 l40 -27 3 -267 2 -267 -22 0 c-21 0 -242
123 -253 141 -15 23 12 49 106 104 55 32 102 62 105 66 3 5 -83 67 -191 139
l-195 130 -195 -130 c-108 -72 -193 -135 -190 -140 3 -5 50 -35 105 -67 93
-54 120 -79 105 -102 -11 -18 -232 -141 -253 -141 l-22 0 2 267 3 267 95 60
c268 169 300 186 350 186 43 0 65 -10 206 -96z"/>
<path d="M2899 10114 c-216 -133 -243 -153 -265 -196 -21 -40 -20 -587 1 -627
21 -41 70 -79 112 -87 38 -7 79 10 221 92 l62 36 0 -126 0 -125 60 -41 60 -41
0 272 c0 306 -2 318 -71 364 l-40 26 23 18 c13 10 49 34 81 54 l57 37 81 -54
81 -54 -39 -25 c-70 -44 -73 -60 -73 -361 0 -146 3 -266 6 -266 3 0 30 15 59
33 l54 32 3 127 3 126 110 -61 c150 -85 202 -83 269 7 20 26 21 42 24 325 3
296 3 297 -20 331 -26 39 -61 64 -297 209 l-164 101 -97 0 -97 0 -204 -126z
m507 -90 c88 -53 177 -108 199 -123 l40 -27 3 -267 2 -267 -22 0 c-21 0 -242
123 -253 141 -15 23 12 49 106 104 55 32 102 62 105 66 3 5 -83 67 -191 139
l-195 130 -195 -130 c-108 -72 -193 -135 -190 -140 3 -5 50 -35 105 -67 93
-54 120 -79 105 -102 -11 -18 -232 -141 -253 -141 l-22 0 2 267 3 267 95 60
c268 169 300 186 350 186 43 0 65 -10 206 -96z" fill="rgb(140, 186, 81)"/>
<path d="M5459 10114 c-216 -133 -243 -153 -265 -196 -21 -40 -20 -587 1 -627
21 -41 70 -79 112 -87 38 -7 79 10 221 92 l62 36 0 -126 0 -125 60 -41 60 -41
0 272 c0 306 -2 318 -71 364 l-40 26 23 18 c13 10 49 34 81 54 l57 37 81 -54
81 -54 -39 -25 c-70 -44 -73 -60 -73 -361 0 -146 3 -266 6 -266 3 0 30 15 59
33 l54 32 3 127 3 126 110 -61 c150 -85 202 -83 269 7 20 26 21 42 24 325 3
296 3 297 -20 331 -26 39 -61 64 -297 209 l-164 101 -97 0 -97 0 -204 -126z
m507 -90 c88 -53 177 -108 199 -123 l40 -27 3 -267 2 -267 -22 0 c-21 0 -242
123 -253 141 -15 23 12 49 106 104 55 32 102 62 105 66 3 5 -83 67 -191 139
l-195 130 -195 -130 c-108 -72 -193 -135 -190 -140 3 -5 50 -35 105 -67 93
-54 120 -79 105 -102 -11 -18 -232 -141 -253 -141 l-22 0 2 267 3 267 95 60
c268 169 300 186 350 186 43 0 65 -10 206 -96z"/>
<path d="M8019 10114 c-216 -133 -243 -153 -265 -196 -21 -40 -20 -587 1 -627
21 -41 70 -79 112 -87 38 -7 79 10 221 92 l62 36 0 -126 0 -125 60 -41 60 -41
0 272 c0 306 -2 318 -71 364 l-40 26 23 18 c13 10 49 34 81 54 l57 37 81 -54
81 -54 -39 -25 c-70 -44 -73 -60 -73 -361 0 -146 3 -266 6 -266 3 0 30 15 59
33 l54 32 3 127 3 126 110 -61 c150 -85 202 -83 269 7 20 26 21 42 24 325 3
296 3 297 -20 331 -26 39 -61 64 -297 209 l-164 101 -97 0 -97 0 -204 -126z
m507 -90 c88 -53 177 -108 199 -123 l40 -27 3 -267 2 -267 -22 0 c-21 0 -242
123 -253 141 -15 23 12 49 106 104 55 32 102 62 105 66 3 5 -83 67 -191 139
l-195 130 -195 -130 c-108 -72 -193 -135 -190 -140 3 -5 50 -35 105 -67 93
-54 120 -79 105 -102 -11 -18 -232 -141 -253 -141 l-22 0 2 267 3 267 95 60
c268 169 300 186 350 186 43 0 65 -10 206 -96z"/>
<path d="M1808 10181 l-57 -36 -3 -127 -3 -126 -110 61 c-150 85 -202 83 -269
-7 -20 -26 -21 -42 -24 -325 -3 -296 -3 -297 20 -331 26 -39 61 -64 297 -209
l164 -101 97 0 96 0 195 119 c224 137 265 169 280 220 6 23 9 137 7 318 -3
266 -4 283 -24 309 -67 91 -126 92 -274 5 l-105 -61 -3 125 -3 125 -59 40 -60
41 0 -272 c0 -307 3 -322 72 -365 l39 -25 -38 -27 c-21 -15 -57 -40 -81 -55
l-42 -27 -80 53 -80 54 38 26 c70 46 73 60 70 364 l-3 269 -57 -35z m-182
-367 c63 -36 117 -70 120 -75 14 -23 -13 -50 -107 -104 -55 -32 -102 -62 -105
-66 -3 -5 83 -67 191 -139 l195 -130 197 131 c225 151 217 126 71 212 -82 48
-107 74 -93 96 11 18 232 141 253 141 l22 0 -2 -267 -3 -267 -95 -60 c-262
-165 -301 -186 -347 -186 -24 0 -58 7 -76 16 -47 25 -339 205 -359 222 -16 14
-18 40 -18 279 0 262 0 263 21 263 12 0 73 -30 135 -66z"/>
<path d="M4368 10181 l-57 -36 -3 -127 -3 -126 -110 61 c-150 85 -202 83 -269
-7 -20 -26 -21 -42 -24 -325 -3 -296 -3 -297 20 -331 26 -39 61 -64 297 -209
l164 -101 97 0 96 0 195 119 c224 137 265 169 280 220 6 23 9 137 7 318 -3
266 -4 283 -24 309 -67 91 -126 92 -274 5 l-105 -61 -3 125 -3 125 -59 40 -60
41 0 -272 c0 -307 3 -322 72 -365 l39 -25 -38 -27 c-21 -15 -57 -40 -81 -55
l-42 -27 -80 53 -80 54 38 26 c70 46 73 60 70 364 l-3 269 -57 -35z m-182
-367 c63 -36 117 -70 120 -75 14 -23 -13 -50 -107 -104 -55 -32 -102 -62 -105
-66 -3 -5 83 -67 191 -139 l195 -130 197 131 c225 151 217 126 71 212 -82 48
-107 74 -93 96 11 18 232 141 253 141 l22 0 -2 -267 -3 -267 -95 -60 c-262
-165 -301 -186 -347 -186 -24 0 -58 7 -76 16 -47 25 -339 205 -359 222 -16 14
-18 40 -18 279 0 262 0 263 21 263 12 0 73 -30 135 -66z"/>
<path d="M6928 10181 l-57 -36 -3 -127 -3 -126 -110 61 c-150 85 -202 83 -269
-7 -20 -26 -21 -42 -24 -325 -3 -296 -3 -297 20 -331 26 -39 61 -64 297 -209
l164 -101 97 0 96 0 195 119 c224 137 265 169 280 220 6 23 9 137 7 318 -3
266 -4 283 -24 309 -67 91 -126 92 -274 5 l-105 -61 -3 125 -3 125 -59 40 -60
41 0 -272 c0 -307 3 -322 72 -365 l39 -25 -38 -27 c-21 -15 -57 -40 -81 -55
l-42 -27 -80 53 -80 54 38 26 c70 46 73 60 70 364 l-3 269 -57 -35z m-182
-367 c63 -36 117 -70 120 -75 14 -23 -13 -50 -107 -104 -55 -32 -102 -62 -105
-66 -3 -5 83 -67 191 -139 l195 -130 197 131 c225 151 217 126 71 212 -82 48
-107 74 -93 96 11 18 232 141 253 141 l22 0 -2 -267 -3 -267 -95 -60 c-262
-165 -301 -186 -347 -186 -24 0 -58 7 -76 16 -47 25 -339 205 -359 222 -16 14
-18 40 -18 279 0 262 0 263 21 263 12 0 73 -30 135 -66z"/>
<path d="M9488 10181 l-57 -36 -3 -127 -3 -126 -110 61 c-150 85 -202 83 -269
-7 -20 -26 -21 -42 -24 -325 -3 -296 -3 -297 20 -331 26 -39 61 -64 297 -209
l164 -101 97 0 96 0 195 119 c224 137 265 169 280 220 6 23 9 137 7 318 -3
266 -4 283 -24 309 -67 91 -126 92 -274 5 l-105 -61 -3 125 -3 125 -59 40 -60
41 0 -272 c0 -307 3 -322 72 -365 l39 -25 -38 -27 c-21 -15 -57 -40 -81 -55
l-42 -27 -80 53 -80 54 38 26 c70 46 73 60 70 364 l-3 269 -57 -35z m-182
-367 c63 -36 117 -70 120 -75 14 -23 -13 -50 -107 -104 -55 -32 -102 -62 -105
-66 -3 -5 83 -67 191 -139 l195 -130 197 131 c225 151 217 126 71 212 -82 48
-107 74 -93 96 11 18 232 141 253 141 l22 0 -2 -267 -3 -267 -95 -60 c-262
-165 -301 -186 -347 -186 -24 0 -58 7 -76 16 -47 25 -339 205 -359 222 -16 14
-18 40 -18 279 0 262 0 263 21 263 12 0 73 -30 135 -66z" fill="rgb(140, 186, 81)"/>
<path d="M979 8834 c-216 -133 -243 -153 -265 -196 -21 -40 -20 -587 1 -627
21 -41 70 -79 112 -87 38 -7 79 10 221 92 l62 36 0 -126 0 -125 60 -41 60 -41
0 272 c0 306 -2 318 -71 364 l-40 26 23 18 c13 10 49 34 81 54 l57 37 81 -54
81 -54 -39 -25 c-70 -44 -73 -60 -73 -361 0 -146 3 -266 6 -266 3 0 30 15 59
33 l54 32 3 127 3 126 110 -61 c150 -85 202 -83 269 7 20 26 21 42 24 325 3
296 3 297 -20 331 -26 39 -61 64 -297 209 l-164 101 -97 0 -97 0 -204 -126z
m507 -90 c88 -53 177 -108 199 -123 l40 -27 3 -267 2 -267 -22 0 c-21 0 -242
123 -253 141 -15 23 12 49 106 104 55 32 102 62 105 66 3 5 -83 67 -191 139
l-195 130 -195 -130 c-108 -72 -193 -135 -190 -140 3 -5 50 -35 105 -67 93
-54 120 -79 105 -102 -11 -18 -232 -141 -253 -141 l-22 0 2 267 3 267 95 60
c268 169 300 186 350 186 43 0 65 -10 206 -96z" fill="rgb(140, 186, 81)"/>
<path d="M3539 8834 c-216 -133 -243 -153 -265 -196 -21 -40 -20 -587 1 -627
21 -41 70 -79 112 -87 38 -7 79 10 221 92 l62 36 0 -126 0 -125 60 -41 60 -41
0 272 c0 306 -2 318 -71 364 l-40 26 23 18 c13 10 49 34 81 54 l57 37 81 -54
81 -54 -39 -25 c-70 -44 -73 -60 -73 -361 0 -146 3 -266 6 -266 3 0 30 15 59
33 l54 32 3 127 3 126 110 -61 c150 -85 202 -83 269 7 20 26 21 42 24 325 3
296 3 297 -20 331 -26 39 -61 64 -297 209 l-164 101 -97 0 -97 0 -204 -126z
m507 -90 c88 -53 177 -108 199 -123 l40 -27 3 -267 2 -267 -22 0 c-21 0 -242
123 -253 141 -15 23 12 49 106 104 55 32 102 62 105 66 3 5 -83 67 -191 139
l-195 130 -195 -130 c-108 -72 -193 -135 -190 -140 3 -5 50 -35 105 -67 93
-54 120 -79 105 -102 -11 -18 -232 -141 -253 -141 l-22 0 2 267 3 267 95 60
c268 169 300 186 350 186 43 0 65 -10 206 -96z"/>
<path d="M6099 8834 c-216 -133 -243 -153 -265 -196 -21 -40 -20 -587 1 -627
21 -41 70 -79 112 -87 38 -7 79 10 221 92 l62 36 0 -126 0 -125 60 -41 60 -41
0 272 c0 306 -2 318 -71 364 l-40 26 23 18 c13 10 49 34 81 54 l57 37 81 -54
81 -54 -39 -25 c-70 -44 -73 -60 -73 -361 0 -146 3 -266 6 -266 3 0 30 15 59
33 l54 32 3 127 3 126 110 -61 c150 -85 202 -83 269 7 20 26 21 42 24 325 3
296 3 297 -20 331 -26 39 -61 64 -297 209 l-164 101 -97 0 -97 0 -204 -126z
m507 -90 c88 -53 177 -108 199 -123 l40 -27 3 -267 2 -267 -22 0 c-21 0 -242
123 -253 141 -15 23 12 49 106 104 55 32 102 62 105 66 3 5 -83 67 -191 139
l-195 130 -195 -130 c-108 -72 -193 -135 -190 -140 3 -5 50 -35 105 -67 93
-54 120 -79 105 -102 -11 -18 -232 -141 -253 -141 l-22 0 2 267 3 267 95 60
c268 169 300 186 350 186 43 0 65 -10 206 -96z" fill="rgb(140, 186, 81)"/>
<path d="M8659 8834 c-216 -133 -243 -153 -265 -196 -21 -40 -20 -587 1 -627
21 -41 70 -79 112 -87 38 -7 79 10 221 92 l62 36 0 -126 0 -125 60 -41 60 -41
0 272 c0 306 -2 318 -71 364 l-40 26 23 18 c13 10 49 34 81 54 l57 37 81 -54
81 -54 -39 -25 c-70 -44 -73 -60 -73 -361 0 -146 3 -266 6 -266 3 0 30 15 59
33 l54 32 3 127 3 126 110 -61 c150 -85 202 -83 269 7 20 26 21 42 24 325 3
296 3 297 -20 331 -26 39 -61 64 -297 209 l-164 101 -97 0 -97 0 -204 -126z
m507 -90 c88 -53 177 -108 199 -123 l40 -27 3 -267 2 -267 -22 0 c-21 0 -242
123 -253 141 -15 23 12 49 106 104 55 32 102 62 105 66 3 5 -83 67 -191 139
l-195 130 -195 -130 c-108 -72 -193 -135 -190 -140 3 -5 50 -35 105 -67 93
-54 120 -79 105 -102 -11 -18 -232 -141 -253 -141 l-22 0 2 267 3 267 95 60
c268 169 300 186 350 186 43 0 65 -10 206 -96z" />
<path d="M2448 8901 l-57 -36 -3 -127 -3 -126 -110 61 c-150 85 -202 83 -269
-7 -20 -26 -21 -42 -24 -325 -3 -296 -3 -297 20 -331 26 -39 61 -64 297 -209
l164 -101 97 0 96 0 195 119 c224 137 265 169 280 220 6 23 9 137 7 318 -3
266 -4 283 -24 309 -67 91 -126 92 -274 5 l-105 -61 -3 125 -3 125 -59 40 -60
41 0 -272 c0 -307 3 -322 72 -365 l39 -25 -38 -27 c-21 -15 -57 -40 -81 -55
l-42 -27 -80 53 -80 54 38 26 c70 46 73 60 70 364 l-3 269 -57 -35z m-182
-367 c63 -36 117 -70 120 -75 14 -23 -13 -50 -107 -104 -55 -32 -102 -62 -105
-66 -3 -5 83 -67 191 -139 l195 -130 197 131 c225 151 217 126 71 212 -82 48
-107 74 -93 96 11 18 232 141 253 141 l22 0 -2 -267 -3 -267 -95 -60 c-262
-165 -301 -186 -347 -186 -24 0 -58 7 -76 16 -47 25 -339 205 -359 222 -16 14
-18 40 -18 279 0 262 0 263 21 263 12 0 73 -30 135 -66z" />
<path d="M5008 8901 l-57 -36 -3 -127 -3 -126 -110 61 c-150 85 -202 83 -269
-7 -20 -26 -21 -42 -24 -325 -3 -296 -3 -297 20 -331 26 -39 61 -64 297 -209
l164 -101 97 0 96 0 195 119 c224 137 265 169 280 220 6 23 9 137 7 318 -3
266 -4 283 -24 309 -36 49 -72 69 -122 68 -39 0 -65 -11 -152 -62 l-105 -62
-3 125 -3 125 -52 35 c-28 19 -55 35 -59 35 -5 0 -8 -120 -8 -266 0 -301 3
-317 72 -360 l39 -25 -38 -27 c-21 -15 -57 -40 -81 -55 l-42 -27 -80 53 -80
54 39 27 c70 49 72 60 69 363 l-3 269 -57 -35z m-182 -367 c63 -36 117 -70
120 -75 14 -23 -14 -50 -115 -109 l-110 -64 200 -133 199 -133 195 130 c108
72 193 135 190 139 -3 5 -50 35 -105 67 -93 54 -120 80 -105 103 11 18 232
141 253 141 l22 0 -2 -267 -3 -267 -95 -60 c-267 -168 -300 -186 -350 -186
-42 0 -63 10 -176 78 -71 43 -154 94 -184 112 -98 60 -90 29 -90 327 0 262 0
263 21 263 12 0 73 -30 135 -66z" />
<path d="M7568 8901 l-57 -36 -3 -127 -3 -126 -110 61 c-150 85 -202 83 -269
-7 -20 -26 -21 -42 -24 -325 -3 -296 -3 -297 20 -331 26 -39 61 -64 297 -209
l164 -101 97 0 96 0 195 119 c224 137 265 169 280 220 6 23 9 137 7 318 -3
266 -4 283 -24 309 -67 91 -126 92 -274 5 l-105 -61 -3 125 -3 125 -59 40 -60
41 0 -272 c0 -307 3 -322 72 -365 l39 -25 -38 -27 c-21 -15 -57 -40 -81 -55
l-42 -27 -80 53 -80 54 38 26 c70 46 73 60 70 364 l-3 269 -57 -35z m-182
-367 c63 -36 117 -70 120 -75 14 -23 -13 -50 -107 -104 -55 -32 -102 -62 -105
-66 -3 -5 83 -67 191 -139 l195 -130 197 131 c225 151 217 126 71 212 -82 48
-107 74 -93 96 11 18 232 141 253 141 l22 0 -2 -267 -3 -267 -95 -60 c-262
-165 -301 -186 -347 -186 -24 0 -58 7 -76 16 -47 25 -339 205 -359 222 -16 14
-18 40 -18 279 0 262 0 263 21 263 12 0 73 -30 135 -66z"/>
<path d="M10128 8901 l-57 -36 -3 -127 -3 -126 -110 61 c-150 85 -202 83 -269
-7 -20 -26 -21 -42 -24 -325 -3 -296 -3 -297 20 -331 26 -39 61 -64 297 -209
142 -87 170 -101 208 -101 l43 0 0 59 c0 56 -1 59 -27 64 -25 5 -357 203 -398
237 -13 11 -15 50 -15 276 0 263 0 264 21 264 21 0 244 -123 255 -141 14 -23
-14 -50 -115 -109 l-110 -64 167 -111 c92 -62 179 -120 195 -129 l27 -18 0 74
0 75 -75 50 -76 50 40 27 c70 49 72 60 69 363 l-3 269 -57 -35z" />
<path d="M50 8664 c0 -301 3 -317 72 -360 l39 -25 -38 -27 c-21 -15 -57 -40
-80 -55 l-43 -27 0 -75 0 -75 195 130 c108 72 193 135 190 139 -3 5 -50 35
-105 67 -93 54 -120 80 -105 103 11 18 232 141 253 141 l22 0 -2 -267 -3 -267
-95 -60 c-212 -134 -304 -186 -326 -186 -23 0 -24 -4 -24 -60 l0 -60 48 0 c44
0 65 11 243 119 224 137 265 169 280 220 6 23 9 137 7 318 -3 266 -4 283 -24
309 -36 49 -72 69 -122 68 -39 0 -65 -11 -152 -62 l-105 -62 -3 125 -3 125
-52 35 c-28 19 -55 35 -59 35 -5 0 -8 -120 -8 -266z" />
<path d="M339 7554 c-216 -133 -243 -153 -265 -196 -21 -40 -20 -587 1 -627
21 -41 70 -79 112 -87 38 -7 79 10 221 92 l62 36 0 -126 0 -125 60 -41 60 -41
0 272 c0 306 -2 318 -71 364 l-40 26 23 18 c13 10 49 34 81 54 l57 37 81 -54
81 -54 -39 -25 c-70 -44 -73 -60 -73 -361 0 -146 3 -266 6 -266 3 0 30 15 59
33 l54 32 3 127 3 126 110 -61 c150 -85 202 -83 269 7 20 26 21 42 24 325 3
296 3 297 -20 331 -26 39 -61 64 -297 209 l-164 101 -97 0 -97 0 -204 -126z
m507 -90 c88 -53 177 -108 199 -123 l40 -27 3 -267 2 -267 -22 0 c-21 0 -242
123 -253 141 -15 23 12 49 106 104 55 32 102 62 105 66 3 5 -83 67 -191 139
l-195 130 -195 -130 c-108 -72 -193 -135 -190 -140 3 -5 50 -35 105 -67 93
-54 120 -79 105 -102 -11 -18 -232 -141 -253 -141 l-22 0 2 267 3 267 95 60
c268 169 300 186 350 186 43 0 65 -10 206 -96z" />
<path d="M2899 7554 c-216 -133 -243 -153 -265 -196 -21 -40 -20 -587 1 -627
21 -41 70 -79 112 -87 38 -7 79 10 221 92 l62 36 0 -126 0 -125 60 -41 60 -41
0 272 c0 306 -2 318 -71 364 l-40 26 23 18 c13 10 49 34 81 54 l57 37 81 -54
81 -54 -39 -25 c-70 -44 -73 -60 -73 -361 0 -146 3 -266 6 -266 3 0 30 15 59
33 l54 32 3 127 3 126 110 -61 c150 -85 202 -83 269 7 20 26 21 42 24 325 3
296 3 297 -20 331 -26 39 -61 64 -297 209 l-164 101 -97 0 -97 0 -204 -126z
m507 -90 c88 -53 177 -108 199 -123 l40 -27 3 -267 2 -267 -22 0 c-21 0 -242
123 -253 141 -15 23 12 49 106 104 55 32 102 62 105 66 3 5 -83 67 -191 139
l-195 130 -195 -130 c-108 -72 -193 -135 -190 -140 3 -5 50 -35 105 -67 93
-54 120 -79 105 -102 -11 -18 -232 -141 -253 -141 l-22 0 2 267 3 267 95 60
c268 169 300 186 350 186 43 0 65 -10 206 -96z" fill="rgb(140, 186, 81)"/>
<path d="M5459 7554 c-216 -133 -243 -153 -265 -196 -21 -40 -20 -587 1 -627
21 -41 70 -79 112 -87 38 -7 79 10 221 92 l62 36 0 -126 0 -125 60 -41 60 -41
0 272 c0 306 -2 318 -71 364 l-40 26 23 18 c13 10 49 34 81 54 l57 37 81 -54
81 -54 -39 -25 c-70 -44 -73 -60 -73 -361 0 -146 3 -266 6 -266 3 0 30 15 59
33 l54 32 3 127 3 126 110 -61 c150 -85 202 -83 269 7 20 26 21 42 24 325 3
296 3 297 -20 331 -26 39 -61 64 -297 209 l-164 101 -97 0 -97 0 -204 -126z
m507 -90 c88 -53 177 -108 199 -123 l40 -27 3 -267 2 -267 -22 0 c-21 0 -242
123 -253 141 -15 23 12 49 106 104 55 32 102 62 105 66 3 5 -83 67 -191 139
l-195 130 -195 -130 c-108 -72 -193 -135 -190 -140 3 -5 50 -35 105 -67 93
-54 120 -79 105 -102 -11 -18 -232 -141 -253 -141 l-22 0 2 267 3 267 95 60
c268 169 300 186 350 186 43 0 65 -10 206 -96z" />
<path d="M8019 7554 c-216 -133 -243 -153 -265 -196 -21 -40 -20 -587 1 -627
21 -41 70 -79 112 -87 38 -7 79 10 221 92 l62 36 0 -126 0 -125 60 -41 60 -41
0 272 c0 306 -2 318 -71 364 l-40 26 23 18 c13 10 49 34 81 54 l57 37 81 -54
81 -54 -39 -25 c-70 -44 -73 -60 -73 -361 0 -146 3 -266 6 -266 3 0 30 15 59
33 l54 32 3 127 3 126 110 -61 c150 -85 202 -83 269 7 20 26 21 42 24 325 3
296 3 297 -20 331 -26 39 -61 64 -297 209 l-164 101 -97 0 -97 0 -204 -126z
m507 -90 c88 -53 177 -108 199 -123 l40 -27 3 -267 2 -267 -22 0 c-21 0 -242
123 -253 141 -15 23 12 49 106 104 55 32 102 62 105 66 3 5 -83 67 -191 139
l-195 130 -195 -130 c-108 -72 -193 -135 -190 -140 3 -5 50 -35 105 -67 93
-54 120 -79 105 -102 -11 -18 -232 -141 -253 -141 l-22 0 2 267 3 267 95 60
c268 169 300 186 350 186 43 0 65 -10 206 -96z" fill="rgb(140, 186, 81)"/>
<path d="M1808 7621 l-57 -36 -3 -127 -3 -126 -110 61 c-150 85 -202 83 -269
-7 -20 -26 -21 -42 -24 -325 -3 -296 -3 -297 20 -331 26 -39 61 -64 297 -209
l164 -101 97 0 96 0 195 119 c224 137 265 169 280 220 6 23 9 137 7 318 -3
266 -4 283 -24 309 -67 91 -126 92 -274 5 l-105 -61 -3 125 -3 125 -59 40 -60
41 0 -272 c0 -307 3 -322 72 -365 l39 -25 -38 -27 c-21 -15 -57 -40 -81 -55
l-42 -27 -80 53 -80 54 38 26 c70 46 73 60 70 364 l-3 269 -57 -35z m-182
-367 c63 -36 117 -70 120 -75 14 -23 -13 -50 -107 -104 -55 -32 -102 -62 -105
-66 -3 -5 83 -67 191 -139 l195 -130 197 131 c225 151 217 126 71 212 -82 48
-107 74 -93 96 11 18 232 141 253 141 l22 0 -2 -267 -3 -267 -95 -60 c-262
-165 -301 -186 -347 -186 -24 0 -58 7 -76 16 -47 25 -339 205 -359 222 -16 14
-18 40 -18 279 0 262 0 263 21 263 12 0 73 -30 135 -66z"/>
<path d="M4368 7621 l-57 -36 -3 -127 -3 -126 -110 61 c-150 85 -202 83 -269
-7 -20 -26 -21 -42 -24 -325 -3 -296 -3 -297 20 -331 26 -39 61 -64 297 -209
l164 -101 97 0 96 0 195 119 c224 137 265 169 280 220 6 23 9 137 7 318 -3
266 -4 283 -24 309 -67 91 -126 92 -274 5 l-105 -61 -3 125 -3 125 -59 40 -60
41 0 -272 c0 -307 3 -322 72 -365 l39 -25 -38 -27 c-21 -15 -57 -40 -81 -55
l-42 -27 -80 53 -80 54 38 26 c70 46 73 60 70 364 l-3 269 -57 -35z m-182
-367 c63 -36 117 -70 120 -75 14 -23 -13 -50 -107 -104 -55 -32 -102 -62 -105
-66 -3 -5 83 -67 191 -139 l195 -130 197 131 c225 151 217 126 71 212 -82 48
-107 74 -93 96 11 18 232 141 253 141 l22 0 -2 -267 -3 -267 -95 -60 c-262
-165 -301 -186 -347 -186 -24 0 -58 7 -76 16 -47 25 -339 205 -359 222 -16 14
-18 40 -18 279 0 262 0 263 21 263 12 0 73 -30 135 -66z" />
<path d="M6928 7621 l-57 -36 -3 -127 -3 -126 -110 61 c-150 85 -202 83 -269
-7 -20 -26 -21 -42 -24 -325 -3 -296 -3 -297 20 -331 26 -39 61 -64 297 -209
l164 -101 97 0 96 0 195 119 c224 137 265 169 280 220 6 23 9 137 7 318 -3
266 -4 283 -24 309 -67 91 -126 92 -274 5 l-105 -61 -3 125 -3 125 -59 40 -60
41 0 -272 c0 -307 3 -322 72 -365 l39 -25 -38 -27 c-21 -15 -57 -40 -81 -55
l-42 -27 -80 53 -80 54 38 26 c70 46 73 60 70 364 l-3 269 -57 -35z m-182
-367 c63 -36 117 -70 120 -75 14 -23 -13 -50 -107 -104 -55 -32 -102 -62 -105
-66 -3 -5 83 -67 191 -139 l195 -130 197 131 c225 151 217 126 71 212 -82 48
-107 74 -93 96 11 18 232 141 253 141 l22 0 -2 -267 -3 -267 -95 -60 c-262
-165 -301 -186 -347 -186 -24 0 -58 7 -76 16 -47 25 -339 205 -359 222 -16 14
-18 40 -18 279 0 262 0 263 21 263 12 0 73 -30 135 -66z" />
<path d="M9488 7621 l-57 -36 -3 -127 -3 -126 -110 61 c-150 85 -202 83 -269
-7 -20 -26 -21 -42 -24 -325 -3 -296 -3 -297 20 -331 26 -39 61 -64 297 -209
l164 -101 97 0 96 0 195 119 c224 137 265 169 280 220 6 23 9 137 7 318 -3
266 -4 283 -24 309 -67 91 -126 92 -274 5 l-105 -61 -3 125 -3 125 -59 40 -60
41 0 -272 c0 -307 3 -322 72 -365 l39 -25 -38 -27 c-21 -15 -57 -40 -81 -55
l-42 -27 -80 53 -80 54 38 26 c70 46 73 60 70 364 l-3 269 -57 -35z m-182
-367 c63 -36 117 -70 120 -75 14 -23 -13 -50 -107 -104 -55 -32 -102 -62 -105
-66 -3 -5 83 -67 191 -139 l195 -130 197 131 c225 151 217 126 71 212 -82 48
-107 74 -93 96 11 18 232 141 253 141 l22 0 -2 -267 -3 -267 -95 -60 c-262
-165 -301 -186 -347 -186 -24 0 -58 7 -76 16 -47 25 -339 205 -359 222 -16 14
-18 40 -18 279 0 262 0 263 21 263 12 0 73 -30 135 -66z" />
<path d="M979 6274 c-216 -133 -243 -153 -265 -196 -21 -40 -20 -587 1 -627
21 -41 70 -79 112 -87 38 -7 79 10 221 92 l62 36 0 -126 0 -125 60 -41 60 -41
0 272 c0 306 -2 318 -71 364 l-40 26 23 18 c13 10 49 34 81 54 l57 37 81 -54
81 -54 -39 -25 c-70 -44 -73 -60 -73 -361 0 -146 3 -266 6 -266 3 0 30 15 59
33 l54 32 3 127 3 126 110 -61 c150 -85 202 -83 269 7 20 26 21 42 24 325 3
296 3 297 -20 331 -26 39 -61 64 -297 209 l-164 101 -97 0 -97 0 -204 -126z
m507 -90 c88 -53 177 -108 199 -123 l40 -27 3 -267 2 -267 -22 0 c-21 0 -242
123 -253 141 -15 23 12 49 106 104 55 32 102 62 105 66 3 5 -83 67 -191 139
l-195 130 -195 -130 c-108 -72 -193 -135 -190 -140 3 -5 50 -35 105 -67 93
-54 120 -79 105 -102 -11 -18 -232 -141 -253 -141 l-22 0 2 267 3 267 95 60
c268 169 300 186 350 186 43 0 65 -10 206 -96z" fill="rgb(140, 186, 81)"/>
<path d="M3539 6274 c-216 -133 -243 -153 -265 -196 -21 -40 -20 -587 1 -627
21 -41 70 -79 112 -87 38 -7 79 10 221 92 l62 36 0 -126 0 -125 60 -41 60 -41
0 272 c0 306 -2 318 -71 364 l-40 26 23 18 c13 10 49 34 81 54 l57 37 81 -54
81 -54 -39 -25 c-70 -44 -73 -60 -73 -361 0 -146 3 -266 6 -266 3 0 30 15 59
33 l54 32 3 127 3 126 110 -61 c150 -85 202 -83 269 7 20 26 21 42 24 325 3
296 3 297 -20 331 -26 39 -61 64 -297 209 l-164 101 -97 0 -97 0 -204 -126z
m507 -90 c88 -53 177 -108 199 -123 l40 -27 3 -267 2 -267 -22 0 c-21 0 -242
123 -253 141 -15 23 12 49 106 104 55 32 102 62 105 66 3 5 -83 67 -191 139
l-195 130 -195 -130 c-108 -72 -193 -135 -190 -140 3 -5 50 -35 105 -67 93
-54 120 -79 105 -102 -11 -18 -232 -141 -253 -141 l-22 0 2 267 3 267 95 60
c268 169 300 186 350 186 43 0 65 -10 206 -96z" />
<path d="M6099 6274 c-216 -133 -243 -153 -265 -196 -21 -40 -20 -587 1 -627
21 -41 70 -79 112 -87 38 -7 79 10 221 92 l62 36 0 -126 0 -125 60 -41 60 -41
0 272 c0 306 -2 318 -71 364 l-40 26 23 18 c13 10 49 34 81 54 l57 37 81 -54
81 -54 -39 -25 c-70 -44 -73 -60 -73 -361 0 -146 3 -266 6 -266 3 0 30 15 59
33 l54 32 3 127 3 126 110 -61 c150 -85 202 -83 269 7 20 26 21 42 24 325 3
296 3 297 -20 331 -26 39 -61 64 -297 209 l-164 101 -97 0 -97 0 -204 -126z
m507 -90 c88 -53 177 -108 199 -123 l40 -27 3 -267 2 -267 -22 0 c-21 0 -242
123 -253 141 -15 23 12 49 106 104 55 32 102 62 105 66 3 5 -83 67 -191 139
l-195 130 -195 -130 c-108 -72 -193 -135 -190 -140 3 -5 50 -35 105 -67 93
-54 120 -79 105 -102 -11 -18 -232 -141 -253 -141 l-22 0 2 267 3 267 95 60
c268 169 300 186 350 186 43 0 65 -10 206 -96z" fill="rgb(140, 186, 81)"/>
<path d="M8659 6274 c-216 -133 -243 -153 -265 -196 -21 -40 -20 -587 1 -627
21 -41 70 -79 112 -87 38 -7 79 10 221 92 l62 36 0 -126 0 -125 60 -41 60 -41
0 272 c0 306 -2 318 -71 364 l-40 26 23 18 c13 10 49 34 81 54 l57 37 81 -54
81 -54 -39 -25 c-70 -44 -73 -60 -73 -361 0 -146 3 -266 6 -266 3 0 30 15 59
33 l54 32 3 127 3 126 110 -61 c150 -85 202 -83 269 7 20 26 21 42 24 325 3
296 3 297 -20 331 -26 39 -61 64 -297 209 l-164 101 -97 0 -97 0 -204 -126z
m507 -90 c88 -53 177 -108 199 -123 l40 -27 3 -267 2 -267 -22 0 c-21 0 -242
123 -253 141 -15 23 12 49 106 104 55 32 102 62 105 66 3 5 -83 67 -191 139
l-195 130 -195 -130 c-108 -72 -193 -135 -190 -140 3 -5 50 -35 105 -67 93
-54 120 -79 105 -102 -11 -18 -232 -141 -253 -141 l-22 0 2 267 3 267 95 60
c268 169 300 186 350 186 43 0 65 -10 206 -96z" />
<path d="M2448 6341 l-57 -36 -3 -127 -3 -126 -110 61 c-150 85 -202 83 -269
-7 -20 -26 -21 -42 -24 -325 -3 -296 -3 -297 20 -331 26 -39 61 -64 297 -209
l164 -101 97 0 96 0 195 119 c224 137 265 169 280 220 6 23 9 137 7 318 -3
266 -4 283 -24 309 -67 91 -126 92 -274 5 l-105 -61 -3 125 -3 125 -59 40 -60
41 0 -272 c0 -307 3 -322 72 -365 l39 -25 -38 -27 c-21 -15 -57 -40 -81 -55
l-42 -27 -80 53 -80 54 38 26 c70 46 73 60 70 364 l-3 269 -57 -35z m-182
-367 c63 -36 117 -70 120 -75 14 -23 -13 -50 -107 -104 -55 -32 -102 -62 -105
-66 -3 -5 83 -67 191 -139 l195 -130 197 131 c225 151 217 126 71 212 -82 48
-107 74 -93 96 11 18 232 141 253 141 l22 0 -2 -267 -3 -267 -95 -60 c-262
-165 -301 -186 -347 -186 -24 0 -58 7 -76 16 -47 25 -339 205 -359 222 -16 14
-18 40 -18 279 0 262 0 263 21 263 12 0 73 -30 135 -66z" />
<path d="M5008 6341 l-57 -36 -3 -127 -3 -126 -110 61 c-150 85 -202 83 -269
-7 -20 -26 -21 -42 -24 -325 -3 -296 -3 -297 20 -331 26 -39 61 -64 297 -209
l164 -101 97 0 96 0 195 119 c224 137 265 169 280 220 6 23 9 137 7 318 -3
266 -4 283 -24 309 -36 49 -72 69 -122 68 -39 0 -65 -11 -152 -62 l-105 -62
-3 125 -3 125 -52 35 c-28 19 -55 35 -59 35 -5 0 -8 -120 -8 -266 0 -301 3
-317 72 -360 l39 -25 -38 -27 c-21 -15 -57 -40 -81 -55 l-42 -27 -80 53 -80
54 39 27 c70 49 72 60 69 363 l-3 269 -57 -35z m-182 -367 c63 -36 117 -70
120 -75 14 -23 -14 -50 -115 -109 l-110 -64 200 -133 199 -133 195 130 c108
72 193 135 190 139 -3 5 -50 35 -105 67 -93 54 -120 80 -105 103 11 18 232
141 253 141 l22 0 -2 -267 -3 -267 -95 -60 c-267 -168 -300 -186 -350 -186
-42 0 -63 10 -176 78 -71 43 -154 94 -184 112 -98 60 -90 29 -90 327 0 262 0
263 21 263 12 0 73 -30 135 -66z" />
<path d="M7568 6341 l-57 -36 -3 -127 -3 -126 -110 61 c-150 85 -202 83 -269
-7 -20 -26 -21 -42 -24 -325 -3 -296 -3 -297 20 -331 26 -39 61 -64 297 -209
l164 -101 97 0 96 0 195 119 c224 137 265 169 280 220 6 23 9 137 7 318 -3
266 -4 283 -24 309 -67 91 -126 92 -274 5 l-105 -61 -3 125 -3 125 -59 40 -60
41 0 -272 c0 -307 3 -322 72 -365 l39 -25 -38 -27 c-21 -15 -57 -40 -81 -55
l-42 -27 -80 53 -80 54 38 26 c70 46 73 60 70 364 l-3 269 -57 -35z m-182
-367 c63 -36 117 -70 120 -75 14 -23 -13 -50 -107 -104 -55 -32 -102 -62 -105
-66 -3 -5 83 -67 191 -139 l195 -130 197 131 c225 151 217 126 71 212 -82 48
-107 74 -93 96 11 18 232 141 253 141 l22 0 -2 -267 -3 -267 -95 -60 c-262
-165 -301 -186 -347 -186 -24 0 -58 7 -76 16 -47 25 -339 205 -359 222 -16 14
-18 40 -18 279 0 262 0 263 21 263 12 0 73 -30 135 -66z" />
<path d="M10128 6341 l-57 -36 -3 -127 -3 -126 -110 61 c-150 85 -202 83 -269
-7 -20 -26 -21 -42 -24 -325 -3 -296 -3 -297 20 -331 26 -39 61 -64 297 -209
142 -87 170 -101 208 -101 l43 0 0 59 c0 56 -1 59 -27 64 -25 5 -357 203 -398
237 -13 11 -15 50 -15 276 0 263 0 264 21 264 21 0 244 -123 255 -141 14 -23
-14 -50 -115 -109 l-110 -64 167 -111 c92 -62 179 -120 195 -129 l27 -18 0 74
0 75 -75 50 -76 50 40 27 c70 49 72 60 69 363 l-3 269 -57 -35z" fill="rgb(140, 186, 81)"/>
<path d="M50 6104 c0 -301 3 -317 72 -360 l39 -25 -38 -27 c-21 -15 -57 -40
-80 -55 l-43 -27 0 -75 0 -75 195 130 c108 72 193 135 190 139 -3 5 -50 35
-105 67 -93 54 -120 80 -105 103 11 18 232 141 253 141 l22 0 -2 -267 -3 -267
-95 -60 c-212 -134 -304 -186 -326 -186 -23 0 -24 -4 -24 -60 l0 -60 48 0 c44
0 65 11 243 119 224 137 265 169 280 220 6 23 9 137 7 318 -3 266 -4 283 -24
309 -36 49 -72 69 -122 68 -39 0 -65 -11 -152 -62 l-105 -62 -3 125 -3 125
-52 35 c-28 19 -55 35 -59 35 -5 0 -8 -120 -8 -266z" />
<path d="M329 4994 c-112 -69 -215 -136 -227 -147 -51 -47 -52 -56 -52 -365 0
-283 0 -290 22 -322 37 -54 73 -75 126 -74 39 1 65 11 150 62 57 34 106 62
108 62 2 0 4 -56 4 -125 l0 -124 60 -41 60 -41 0 272 c0 306 -2 318 -71 364
l-40 26 23 18 c13 10 49 34 81 54 l57 37 81 -54 81 -54 -39 -25 c-70 -44 -73
-59 -73 -366 l0 -270 59 37 60 37 3 127 3 126 110 -61 c150 -85 202 -83 269 7
20 26 21 42 24 325 3 296 3 297 -20 331 -26 39 -61 64 -297 209 l-164 101 -97
0 -97 0 -204 -126z m507 -90 c88 -53 177 -108 199 -123 l40 -27 3 -267 2 -267
-22 0 c-21 0 -242 123 -253 141 -15 23 12 49 106 104 55 32 102 62 105 66 3 5
-83 67 -191 139 l-195 130 -195 -130 c-108 -72 -193 -135 -190 -140 3 -5 50
-35 105 -67 93 -54 120 -79 106 -102 -11 -18 -234 -141 -255 -141 l-21 0 2
267 3 267 95 60 c267 168 300 186 350 186 42 0 65 -10 206 -96z" />
<path d="M2889 4994 c-112 -69 -215 -136 -227 -147 -51 -47 -52 -56 -52 -365
0 -283 0 -290 23 -322 36 -54 72 -75 125 -74 39 1 65 11 150 62 57 34 106 62
108 62 2 0 4 -56 4 -125 l0 -124 60 -41 60 -41 0 272 c0 306 -2 318 -71 364
l-40 26 23 18 c13 10 49 34 81 54 l57 37 81 -54 81 -54 -39 -25 c-70 -44 -73
-59 -73 -366 l0 -270 59 37 60 37 3 127 3 126 110 -61 c150 -85 202 -83 269 7
20 26 21 42 24 325 3 296 3 297 -20 331 -26 39 -61 64 -297 209 l-164 101 -97
0 -97 0 -204 -126z m507 -90 c88 -53 177 -108 199 -123 l40 -27 3 -267 2 -267
-22 0 c-21 0 -242 123 -253 141 -15 23 12 49 106 104 55 32 102 62 105 66 3 5
-83 67 -191 139 l-195 130 -195 -130 c-108 -72 -193 -135 -190 -140 3 -5 50
-35 105 -67 93 -54 120 -79 106 -102 -11 -18 -234 -141 -255 -141 l-21 0 2
267 3 267 95 60 c267 168 300 186 350 186 42 0 65 -10 206 -96z" fill="rgb(140, 186, 81)"/>
<path d="M5439 4994 c-112 -69 -215 -136 -227 -147 -51 -47 -52 -56 -52 -365
0 -283 0 -290 23 -322 36 -53 72 -75 125 -75 39 1 64 11 150 63 57 34 106 62
108 62 2 0 4 -56 4 -125 l0 -124 60 -41 60 -41 0 272 c0 306 -2 318 -71 364
l-40 26 23 18 c13 10 49 34 81 54 l57 37 81 -54 81 -54 -39 -25 c-70 -44 -73
-59 -73 -366 l0 -270 59 37 60 37 3 127 3 126 110 -61 c150 -84 202 -83 269 7
20 26 21 42 24 325 3 296 3 297 -20 331 -26 39 -61 64 -297 209 l-164 101 -97
0 -97 0 -204 -126z m507 -90 c88 -53 177 -108 199 -123 l40 -27 3 -267 2 -267
-21 0 c-21 0 -244 123 -255 141 -14 23 13 50 107 104 55 32 102 62 105 66 3 5
-83 67 -191 139 l-195 130 -195 -130 c-108 -72 -193 -135 -190 -140 3 -5 50
-35 105 -67 93 -54 120 -79 105 -102 -11 -18 -232 -141 -253 -141 l-22 0 2
267 3 267 95 60 c268 169 300 186 350 186 43 0 65 -10 206 -96z" />
<path d="M7999 4994 c-112 -69 -215 -136 -227 -147 -51 -47 -52 -56 -52 -365
0 -283 0 -290 23 -322 36 -53 72 -75 125 -75 39 1 64 11 150 63 57 34 106 62
108 62 2 0 4 -56 4 -125 l0 -124 60 -41 60 -41 0 272 c0 306 -2 318 -71 364
l-40 26 23 18 c13 10 49 34 81 54 l57 37 81 -54 81 -54 -39 -25 c-70 -44 -73
-59 -73 -366 l0 -270 59 37 60 37 3 127 3 126 110 -61 c150 -84 202 -83 269 7
20 26 21 42 24 325 3 296 3 297 -20 331 -26 39 -61 64 -297 209 l-164 101 -97
0 -97 0 -204 -126z m507 -90 c88 -53 177 -108 199 -123 l40 -27 3 -267 2 -267
-21 0 c-21 0 -244 123 -255 141 -14 23 13 50 107 104 55 32 102 62 105 66 3 5
-83 67 -191 139 l-195 130 -195 -130 c-108 -72 -193 -135 -190 -140 3 -5 50
-35 105 -67 93 -54 120 -79 105 -102 -11 -18 -232 -141 -253 -141 l-22 0 2
267 3 267 95 60 c268 169 300 186 350 186 43 0 65 -10 206 -96z" fill="rgb(140, 186, 81)"/>
<path d="M1798 5061 l-57 -36 -1 -128 0 -129 -62 37 c-35 20 -91 50 -126 67
-73 35 -112 33 -163 -9 -56 -48 -59 -64 -59 -376 0 -279 0 -285 23 -318 25
-38 61 -63 296 -208 l164 -101 97 0 96 0 195 119 c224 137 265 169 280 220 6
23 9 137 7 318 -3 266 -4 283 -24 309 -67 91 -126 92 -274 5 l-105 -61 -3 125
-3 125 -59 40 -60 41 0 -272 c0 -307 3 -322 73 -366 l39 -25 -81 -54 -81 -54
-80 53 -80 54 38 26 c70 46 73 60 70 364 l-3 269 -57 -35z m-181 -367 c62 -36
115 -70 118 -75 15 -23 -12 -49 -106 -104 -55 -32 -102 -62 -105 -66 -3 -5 83
-67 191 -139 l195 -130 195 130 c108 72 193 135 190 140 -3 5 -50 35 -105 67
-93 54 -120 79 -105 102 11 18 232 141 253 141 l22 0 -2 -267 -3 -267 -95 -60
c-267 -168 -300 -186 -350 -186 -42 0 -63 10 -176 78 -71 43 -154 94 -184 112
-98 60 -90 29 -90 327 l0 263 22 0 c12 0 72 -30 135 -66z" />
<path d="M4358 5061 l-57 -36 -1 -128 0 -129 -62 37 c-35 20 -91 50 -126 67
-73 35 -112 33 -163 -9 -56 -48 -59 -64 -59 -376 0 -279 0 -285 23 -318 25
-38 61 -63 296 -208 l164 -101 97 0 96 0 195 119 c224 137 265 169 280 220 6
23 9 137 7 318 -3 266 -4 283 -24 309 -67 91 -126 92 -274 5 l-105 -61 -3 125
-3 125 -59 40 -60 41 0 -272 c0 -307 3 -322 73 -366 l39 -25 -81 -54 -81 -54
-80 53 -80 54 38 26 c70 46 73 60 70 364 l-3 269 -57 -35z m-181 -367 c62 -36
115 -70 118 -75 15 -23 -12 -49 -106 -104 -55 -32 -102 -62 -105 -66 -3 -5 83
-67 191 -139 l195 -130 195 130 c108 72 193 135 190 140 -3 5 -50 35 -105 67
-93 54 -120 79 -105 102 11 18 232 141 253 141 l22 0 -2 -267 -3 -267 -95 -60
c-267 -168 -300 -186 -350 -186 -42 0 -63 10 -176 78 -71 43 -154 94 -184 112
-98 60 -90 29 -90 327 l0 263 22 0 c12 0 72 -30 135 -66z" />
<path d="M6908 5061 l-57 -36 -3 -127 -3 -126 -110 61 c-150 84 -202 83 -269
-7 -20 -26 -21 -42 -24 -325 -3 -296 -3 -297 20 -331 26 -39 61 -64 297 -209
l164 -101 97 0 96 0 195 119 c223 136 265 169 280 220 6 23 9 137 7 318 -3
266 -4 283 -24 309 -37 50 -72 69 -122 68 -39 -1 -65 -11 -150 -62 -57 -34
-106 -62 -108 -62 -2 0 -4 56 -4 125 l0 124 -52 36 c-29 19 -56 35 -60 35 -5
0 -8 -120 -8 -266 0 -301 3 -317 73 -361 l39 -25 -81 -54 -81 -54 -80 53 -80
54 38 26 c70 46 73 60 70 364 l-3 269 -57 -35z m-181 -367 c62 -36 115 -70
118 -75 15 -23 -12 -49 -114 -109 l-109 -65 199 -133 199 -132 195 130 c108
72 193 135 190 139 -3 5 -50 35 -105 67 -93 53 -120 80 -106 103 11 18 234
141 255 141 l21 0 -2 -267 -3 -267 -95 -60 c-267 -168 -300 -186 -350 -186
-42 0 -63 10 -176 78 -71 43 -154 94 -184 112 -98 60 -90 29 -90 327 l0 263
22 0 c12 0 72 -30 135 -66z" />
<path d="M9468 5061 l-57 -36 -3 -127 -3 -126 -110 61 c-150 84 -202 83 -269
-7 -20 -26 -21 -42 -24 -325 -3 -296 -3 -297 20 -331 26 -39 61 -64 297 -209
l164 -101 97 0 96 0 195 119 c223 136 265 169 280 220 6 23 9 137 7 318 -3
266 -4 283 -24 309 -37 50 -72 69 -122 68 -39 -1 -65 -11 -150 -62 -57 -34
-106 -62 -108 -62 -2 0 -4 56 -4 125 l0 124 -52 36 c-29 19 -56 35 -60 35 -5
0 -8 -120 -8 -266 0 -301 3 -317 73 -361 l39 -25 -81 -54 -81 -54 -80 53 -80
54 38 26 c70 46 73 60 70 364 l-3 269 -57 -35z m-181 -367 c62 -36 115 -70
118 -75 15 -23 -12 -49 -114 -109 l-109 -65 199 -133 199 -132 195 130 c108
72 193 135 190 139 -3 5 -50 35 -105 67 -93 53 -120 80 -106 103 11 18 234
141 255 141 l21 0 -2 -267 -3 -267 -95 -60 c-267 -168 -300 -186 -350 -186
-42 0 -63 10 -176 78 -71 43 -154 94 -184 112 -98 60 -90 29 -90 327 l0 263
22 0 c12 0 72 -30 135 -66z" />
<path d="M969 3714 c-112 -69 -215 -136 -227 -147 -51 -47 -52 -56 -52 -365 0
-283 0 -290 23 -322 36 -54 72 -75 125 -74 39 1 65 11 150 62 57 34 106 62
108 62 2 0 4 -56 4 -125 l0 -124 60 -41 60 -41 0 272 c0 306 -2 318 -71 364
l-40 26 23 18 c13 10 49 34 81 54 l57 37 81 -54 81 -54 -39 -25 c-70 -44 -73
-59 -73 -366 l0 -270 59 37 60 37 3 127 3 126 110 -61 c150 -85 202 -83 269 7
20 26 21 42 24 325 3 296 3 297 -20 331 -26 39 -61 64 -297 209 l-164 101 -97
0 -97 0 -204 -126z m507 -90 c88 -53 177 -108 199 -123 l40 -27 3 -267 2 -267
-22 0 c-21 0 -242 123 -253 141 -15 23 12 49 106 104 55 32 102 62 105 66 3 5
-83 67 -191 139 l-195 130 -195 -130 c-108 -72 -193 -135 -190 -140 3 -5 50
-35 105 -67 93 -54 120 -79 106 -102 -11 -18 -234 -141 -255 -141 l-21 0 2
267 3 267 95 60 c267 168 300 186 350 186 42 0 65 -10 206 -96z" fill="rgb(140, 186, 81)"/>
<path d="M3529 3714 c-112 -69 -215 -136 -227 -147 -51 -47 -52 -56 -52 -365
0 -283 0 -290 23 -322 36 -54 72 -75 125 -74 39 1 65 11 150 62 57 34 106 62
108 62 2 0 4 -56 4 -125 l0 -124 60 -41 60 -41 0 272 c0 306 -2 318 -71 364
l-40 26 23 18 c13 10 49 34 81 54 l57 37 81 -54 81 -54 -39 -25 c-70 -44 -73
-59 -73 -366 l0 -270 59 37 60 37 3 127 3 126 110 -61 c150 -85 202 -83 269 7
20 26 21 42 24 325 3 296 3 297 -20 331 -26 39 -61 64 -297 209 l-164 101 -97
0 -97 0 -204 -126z m507 -90 c88 -53 177 -108 199 -123 l40 -27 3 -267 2 -267
-22 0 c-21 0 -242 123 -253 141 -15 23 12 49 106 104 55 32 102 62 105 66 3 5
-83 67 -191 139 l-195 130 -195 -130 c-108 -72 -193 -135 -190 -140 3 -5 50
-35 105 -67 93 -54 120 -79 106 -102 -11 -18 -234 -141 -255 -141 l-21 0 2
267 3 267 95 60 c267 168 300 186 350 186 42 0 65 -10 206 -96z" />
<path d="M6079 3714 c-112 -69 -215 -136 -227 -147 -51 -47 -52 -56 -52 -365
0 -283 0 -290 23 -322 36 -53 72 -75 125 -75 39 1 64 11 150 63 57 34 106 62
108 62 2 0 4 -56 4 -125 l0 -124 60 -41 60 -41 0 272 c0 306 -2 318 -71 364
l-40 26 23 18 c13 10 49 34 81 54 l57 37 81 -54 81 -54 -39 -25 c-70 -44 -73
-59 -73 -366 l0 -270 59 37 60 37 3 127 3 126 110 -61 c150 -84 202 -83 269 7
20 26 21 42 24 325 3 296 3 297 -20 331 -26 39 -61 64 -297 209 l-164 101 -97
0 -97 0 -204 -126z m507 -90 c88 -53 177 -108 199 -123 l40 -27 3 -267 2 -267
-21 0 c-21 0 -244 123 -255 141 -14 23 13 50 107 104 55 32 102 62 105 66 3 5
-83 67 -191 139 l-195 130 -195 -130 c-108 -72 -193 -135 -190 -140 3 -5 50
-35 105 -67 93 -54 120 -79 105 -102 -11 -18 -232 -141 -253 -141 l-22 0 2
267 3 267 95 60 c268 169 300 186 350 186 43 0 65 -10 206 -96z" fill="rgb(140, 186, 81)"/>
<path d="M8639 3714 c-112 -69 -215 -136 -227 -147 -51 -47 -52 -56 -52 -365
0 -283 0 -290 23 -322 36 -53 72 -75 125 -75 39 1 64 11 150 63 57 34 106 62
108 62 2 0 4 -56 4 -125 l0 -124 60 -41 60 -41 0 272 c0 306 -2 318 -71 364
l-40 26 23 18 c13 10 49 34 81 54 l57 37 81 -54 81 -54 -39 -25 c-70 -44 -73
-59 -73 -366 l0 -270 59 37 60 37 3 127 3 126 110 -61 c150 -84 202 -83 269 7
20 26 21 42 24 325 3 296 3 297 -20 331 -26 39 -61 64 -297 209 l-164 101 -97
0 -97 0 -204 -126z m507 -90 c88 -53 177 -108 199 -123 l40 -27 3 -267 2 -267
-21 0 c-21 0 -244 123 -255 141 -14 23 13 50 107 104 55 32 102 62 105 66 3 5
-83 67 -191 139 l-195 130 -195 -130 c-108 -72 -193 -135 -190 -140 3 -5 50
-35 105 -67 93 -54 120 -79 105 -102 -11 -18 -232 -141 -253 -141 l-22 0 2
267 3 267 95 60 c268 169 300 186 350 186 43 0 65 -10 206 -96z" />
<path d="M40 3549 c0 -307 3 -322 72 -365 l39 -25 -38 -28 c-21 -15 -55 -37
-75 -50 l-38 -23 0 -74 c0 -58 3 -73 12 -68 7 4 94 61 192 127 l179 119 -24
19 c-13 10 -61 39 -107 66 -77 44 -101 70 -87 92 11 18 232 141 253 141 l22 0
-2 -267 -3 -268 -190 -118 c-104 -65 -202 -121 -217 -124 -27 -5 -28 -8 -28
-64 l0 -59 43 0 c37 0 69 16 238 119 224 137 265 169 280 220 6 23 9 137 7
318 -3 266 -4 283 -24 309 -36 49 -72 69 -122 68 -39 0 -65 -11 -152 -62
l-105 -62 -3 125 -3 125 -59 40 -60 41 0 -272z" />
<path d="M2438 3781 l-57 -36 -1 -128 0 -129 -62 37 c-35 20 -91 50 -126 67
-73 35 -112 33 -163 -9 -56 -48 -59 -64 -59 -376 0 -279 0 -285 23 -318 25
-38 61 -63 296 -208 l164 -101 97 0 96 0 195 119 c224 137 265 169 280 220 6
23 9 137 7 318 -3 266 -4 283 -24 309 -67 91 -126 92 -274 5 l-105 -61 -3 125
-3 125 -59 40 -60 41 0 -272 c0 -307 3 -322 73 -366 l39 -25 -81 -54 -81 -54
-80 53 -80 54 38 26 c70 46 73 60 70 364 l-3 269 -57 -35z m-181 -367 c62 -36
115 -70 118 -75 15 -23 -12 -49 -106 -104 -55 -32 -102 -62 -105 -66 -3 -5 83
-67 191 -139 l195 -130 195 130 c108 72 193 135 190 140 -3 5 -50 35 -105 67
-93 54 -120 79 -105 102 11 18 232 141 253 141 l22 0 -2 -267 -3 -267 -95 -60
c-267 -168 -300 -186 -350 -186 -42 0 -63 10 -176 78 -71 43 -154 94 -184 112
-98 60 -90 29 -90 327 l0 263 22 0 c12 0 72 -30 135 -66z" />
<path d="M4998 3781 l-57 -36 -3 -127 -3 -127 -110 62 c-150 84 -202 83 -269
-7 -20 -26 -21 -43 -24 -319 -2 -198 1 -299 8 -318 19 -44 55 -71 269 -203
l204 -126 92 0 91 0 195 119 c106 65 209 132 228 147 59 49 61 64 61 377 0
278 0 285 -22 317 -37 54 -73 75 -126 74 -39 0 -65 -11 -152 -62 l-105 -62 -3
125 -3 125 -59 40 -60 41 0 -272 c0 -307 3 -322 72 -365 l39 -25 -38 -27 c-21
-15 -56 -39 -78 -53 l-40 -26 -78 52 -77 52 39 27 c70 49 72 60 69 363 l-3
269 -57 -35z m-181 -367 c62 -36 115 -70 118 -75 15 -23 -12 -49 -106 -104
-55 -32 -102 -62 -105 -66 -3 -5 82 -66 188 -137 l193 -129 194 130 194 129
-24 19 c-13 10 -61 39 -107 66 -77 44 -101 70 -87 92 11 18 232 141 253 141
l22 0 -2 -267 -3 -267 -95 -60 c-52 -33 -142 -88 -199 -123 -146 -89 -146 -89
-347 33 -88 53 -177 108 -199 123 l-40 27 -3 267 -2 267 22 0 c12 0 72 -30
135 -66z" />
<path d="M7548 3781 l-57 -36 -3 -127 -3 -126 -110 61 c-150 84 -202 83 -269
-7 -20 -26 -21 -42 -24 -325 -3 -296 -3 -297 20 -331 26 -39 61 -64 297 -209
l164 -101 97 0 96 0 195 119 c223 136 265 169 280 220 6 23 9 137 7 318 -3
266 -4 283 -24 309 -37 50 -72 69 -122 68 -39 -1 -65 -11 -150 -62 -57 -34
-106 -62 -108 -62 -2 0 -4 56 -4 125 l0 124 -52 36 c-29 19 -56 35 -60 35 -5
0 -8 -120 -8 -266 0 -301 3 -317 73 -361 l39 -25 -81 -54 -81 -54 -80 53 -80
54 38 26 c70 46 73 60 70 364 l-3 269 -57 -35z m-181 -367 c62 -36 115 -70
118 -75 15 -23 -12 -49 -114 -109 l-109 -65 199 -133 199 -132 195 130 c108
72 193 135 190 139 -3 5 -50 35 -105 67 -93 53 -120 80 -106 103 11 18 234
141 255 141 l21 0 -2 -267 -3 -267 -95 -60 c-267 -168 -300 -186 -350 -186
-42 0 -63 10 -176 78 -71 43 -154 94 -184 112 -98 60 -90 29 -90 327 l0 263
22 0 c12 0 72 -30 135 -66z" />
<path d="M10108 3781 l-57 -36 -3 -127 -3 -126 -110 61 c-150 84 -202 83 -269
-7 -20 -26 -21 -43 -24 -319 -3 -310 -1 -325 46 -370 25 -23 352 -231 413
-263 16 -8 48 -14 74 -14 l45 0 0 60 c0 56 -1 60 -24 60 -13 0 -81 35 -152 78
-71 43 -154 94 -184 112 -98 60 -90 29 -90 327 l0 263 22 0 c21 0 242 -123
253 -141 15 -23 -13 -50 -115 -109 -60 -35 -108 -65 -107 -66 1 -1 91 -60 200
-133 l197 -131 0 75 0 75 -80 53 -80 54 39 27 c70 49 72 60 69 363 l-3 269
-57 -35z" fill="rgb(140, 186, 81)"/>
<path d="M329 2434 c-112 -69 -215 -136 -227 -147 -51 -47 -52 -56 -52 -365 0
-283 0 -290 22 -322 37 -54 73 -75 126 -74 39 1 65 11 150 62 57 34 106 62
108 62 2 0 4 -56 4 -125 l0 -124 60 -41 60 -41 0 272 c0 306 -2 318 -71 364
l-40 26 23 18 c13 10 49 34 81 54 l57 37 81 -54 81 -54 -39 -25 c-70 -44 -73
-59 -73 -366 l0 -270 59 37 60 37 3 127 3 126 110 -61 c150 -85 202 -83 269 7
20 26 21 42 24 325 3 296 3 297 -20 331 -26 39 -61 64 -297 209 l-164 101 -97
0 -97 0 -204 -126z m507 -90 c88 -53 177 -108 199 -123 l40 -27 3 -267 2 -267
-22 0 c-21 0 -242 123 -253 141 -15 23 12 49 106 104 55 32 102 62 105 66 3 5
-83 67 -191 139 l-195 130 -195 -130 c-108 -72 -193 -135 -190 -140 3 -5 50
-35 105 -67 93 -54 120 -79 106 -102 -11 -18 -234 -141 -255 -141 l-21 0 2
267 3 267 95 60 c267 168 300 186 350 186 42 0 65 -10 206 -96z" />
<path d="M2889 2434 c-112 -69 -215 -136 -227 -147 -51 -47 -52 -56 -52 -365
0 -283 0 -290 23 -322 36 -54 72 -75 125 -74 39 1 65 11 150 62 57 34 106 62
108 62 2 0 4 -56 4 -125 l0 -124 60 -41 60 -41 0 272 c0 306 -2 318 -71 364
l-40 26 23 18 c13 10 49 34 81 54 l57 37 81 -54 81 -54 -39 -25 c-70 -44 -73
-59 -73 -366 l0 -270 59 37 60 37 3 127 3 126 110 -61 c150 -85 202 -83 269 7
20 26 21 42 24 325 3 296 3 297 -20 331 -26 39 -61 64 -297 209 l-164 101 -97
0 -97 0 -204 -126z m507 -90 c88 -53 177 -108 199 -123 l40 -27 3 -267 2 -267
-22 0 c-21 0 -242 123 -253 141 -15 23 12 49 106 104 55 32 102 62 105 66 3 5
-83 67 -191 139 l-195 130 -195 -130 c-108 -72 -193 -135 -190 -140 3 -5 50
-35 105 -67 93 -54 120 -79 106 -102 -11 -18 -234 -141 -255 -141 l-21 0 2
267 3 267 95 60 c267 168 300 186 350 186 42 0 65 -10 206 -96z" fill="rgb(140, 186, 81)"/>
<path d="M5439 2434 c-112 -69 -215 -136 -227 -147 -51 -47 -52 -56 -52 -365
0 -283 0 -290 23 -322 36 -53 72 -75 125 -75 39 1 64 11 150 63 57 34 106 62
108 62 2 0 4 -56 4 -125 l0 -124 60 -41 60 -41 0 272 c0 306 -2 318 -71 364
l-40 26 23 18 c13 10 49 34 81 54 l57 37 81 -54 81 -54 -39 -25 c-70 -44 -73
-59 -73 -366 l0 -270 59 37 60 37 3 127 3 126 110 -61 c150 -84 202 -83 269 7
20 26 21 42 24 325 3 296 3 297 -20 331 -26 39 -61 64 -297 209 l-164 101 -97
0 -97 0 -204 -126z m507 -90 c88 -53 177 -108 199 -123 l40 -27 3 -267 2 -267
-21 0 c-21 0 -244 123 -255 141 -14 23 13 50 107 104 55 32 102 62 105 66 3 5
-83 67 -191 139 l-195 130 -195 -130 c-108 -72 -193 -135 -190 -140 3 -5 50
-35 105 -67 93 -54 120 -79 105 -102 -11 -18 -232 -141 -253 -141 l-22 0 2
267 3 267 95 60 c268 169 300 186 350 186 43 0 65 -10 206 -96z" />
<path d="M7999 2434 c-112 -69 -215 -136 -227 -147 -51 -47 -52 -56 -52 -365
0 -283 0 -290 23 -322 36 -53 72 -75 125 -75 39 1 64 11 150 63 57 34 106 62
108 62 2 0 4 -56 4 -125 l0 -124 60 -41 60 -41 0 272 c0 306 -2 318 -71 364
l-40 26 23 18 c13 10 49 34 81 54 l57 37 81 -54 81 -54 -39 -25 c-70 -44 -73
-59 -73 -366 l0 -270 59 37 60 37 3 127 3 126 110 -61 c150 -84 202 -83 269 7
20 26 21 42 24 325 3 296 3 297 -20 331 -26 39 -61 64 -297 209 l-164 101 -97
0 -97 0 -204 -126z m507 -90 c88 -53 177 -108 199 -123 l40 -27 3 -267 2 -267
-21 0 c-21 0 -244 123 -255 141 -14 23 13 50 107 104 55 32 102 62 105 66 3 5
-83 67 -191 139 l-195 130 -195 -130 c-108 -72 -193 -135 -190 -140 3 -5 50
-35 105 -67 93 -54 120 -79 105 -102 -11 -18 -232 -141 -253 -141 l-22 0 2
267 3 267 95 60 c268 169 300 186 350 186 43 0 65 -10 206 -96z" fill="rgb(140, 186, 81)"/>
<path d="M1798 2501 l-57 -36 -1 -128 0 -129 -62 37 c-35 20 -91 50 -126 67
-73 35 -112 33 -163 -9 -56 -48 -59 -64 -59 -376 0 -279 0 -285 23 -318 25
-38 61 -63 296 -208 l164 -101 97 0 96 0 195 119 c224 137 265 169 280 220 6
23 9 137 7 318 -3 266 -4 283 -24 309 -67 91 -126 92 -274 5 l-105 -61 -3 125
-3 125 -59 40 -60 41 0 -272 c0 -307 3 -322 73 -366 l39 -25 -81 -54 -81 -54
-80 53 -80 54 38 26 c70 46 73 60 70 364 l-3 269 -57 -35z m-181 -367 c62 -36
115 -70 118 -75 15 -23 -12 -49 -106 -104 -55 -32 -102 -62 -105 -66 -3 -5 83
-67 191 -139 l195 -130 195 130 c108 72 193 135 190 140 -3 5 -50 35 -105 67
-93 54 -120 79 -105 102 11 18 232 141 253 141 l22 0 -2 -267 -3 -267 -95 -60
c-267 -168 -300 -186 -350 -186 -42 0 -63 10 -176 78 -71 43 -154 94 -184 112
-98 60 -90 29 -90 327 l0 263 22 0 c12 0 72 -30 135 -66z" />
<path d="M4358 2501 l-57 -36 -1 -128 0 -129 -62 37 c-35 20 -91 50 -126 67
-73 35 -112 33 -163 -9 -56 -48 -59 -64 -59 -376 0 -279 0 -285 23 -318 25
-38 61 -63 296 -208 l164 -101 97 0 96 0 195 119 c224 137 265 169 280 220 6
23 9 137 7 318 -3 266 -4 283 -24 309 -67 91 -126 92 -274 5 l-105 -61 -3 125
-3 125 -59 40 -60 41 0 -272 c0 -307 3 -322 73 -366 l39 -25 -81 -54 -81 -54
-80 53 -80 54 38 26 c70 46 73 60 70 364 l-3 269 -57 -35z m-181 -367 c62 -36
115 -70 118 -75 15 -23 -12 -49 -106 -104 -55 -32 -102 -62 -105 -66 -3 -5 83
-67 191 -139 l195 -130 195 130 c108 72 193 135 190 140 -3 5 -50 35 -105 67
-93 54 -120 79 -105 102 11 18 232 141 253 141 l22 0 -2 -267 -3 -267 -95 -60
c-267 -168 -300 -186 -350 -186 -42 0 -63 10 -176 78 -71 43 -154 94 -184 112
-98 60 -90 29 -90 327 l0 263 22 0 c12 0 72 -30 135 -66z" />
<path d="M6908 2501 l-57 -36 -3 -127 -3 -126 -110 61 c-150 84 -202 83 -269
-7 -20 -26 -21 -42 -24 -325 -3 -296 -3 -297 20 -331 26 -39 61 -64 297 -209
l164 -101 97 0 96 0 195 119 c223 136 265 169 280 220 6 23 9 137 7 318 -3
266 -4 283 -24 309 -37 50 -72 69 -122 68 -39 -1 -65 -11 -150 -62 -57 -34
-106 -62 -108 -62 -2 0 -4 56 -4 125 l0 124 -52 36 c-29 19 -56 35 -60 35 -5
0 -8 -120 -8 -266 0 -301 3 -317 73 -361 l39 -25 -81 -54 -81 -54 -80 53 -80
54 38 26 c70 46 73 60 70 364 l-3 269 -57 -35z m-181 -367 c62 -36 115 -70
118 -75 15 -23 -12 -49 -114 -109 l-109 -65 199 -133 199 -132 195 130 c108
72 193 135 190 139 -3 5 -50 35 -105 67 -93 53 -120 80 -106 103 11 18 234
141 255 141 l21 0 -2 -267 -3 -267 -95 -60 c-267 -168 -300 -186 -350 -186
-42 0 -63 10 -176 78 -71 43 -154 94 -184 112 -98 60 -90 29 -90 327 l0 263
22 0 c12 0 72 -30 135 -66z" />
<path d="M9468 2501 l-57 -36 -3 -127 -3 -126 -110 61 c-150 84 -202 83 -269
-7 -20 -26 -21 -42 -24 -325 -3 -296 -3 -297 20 -331 26 -39 61 -64 297 -209
l164 -101 97 0 96 0 195 119 c223 136 265 169 280 220 6 23 9 137 7 318 -3
266 -4 283 -24 309 -37 50 -72 69 -122 68 -39 -1 -65 -11 -150 -62 -57 -34
-106 -62 -108 -62 -2 0 -4 56 -4 125 l0 124 -52 36 c-29 19 -56 35 -60 35 -5
0 -8 -120 -8 -266 0 -301 3 -317 73 -361 l39 -25 -81 -54 -81 -54 -80 53 -80
54 38 26 c70 46 73 60 70 364 l-3 269 -57 -35z m-181 -367 c62 -36 115 -70
118 -75 15 -23 -12 -49 -114 -109 l-109 -65 199 -133 199 -132 195 130 c108
72 193 135 190 139 -3 5 -50 35 -105 67 -93 53 -120 80 -106 103 11 18 234
141 255 141 l21 0 -2 -267 -3 -267 -95 -60 c-267 -168 -300 -186 -350 -186
-42 0 -63 10 -176 78 -71 43 -154 94 -184 112 -98 60 -90 29 -90 327 l0 263
22 0 c12 0 72 -30 135 -66z" />
<path d="M969 1154 c-112 -69 -215 -136 -227 -147 -51 -47 -52 -56 -52 -365 0
-283 0 -290 23 -322 36 -54 72 -75 125 -74 39 1 65 11 150 62 57 34 106 62
108 62 2 0 4 -56 4 -125 l0 -124 60 -41 60 -41 0 272 c0 306 -2 318 -71 364
l-40 26 23 18 c13 10 49 34 81 54 l57 37 81 -54 81 -54 -39 -25 c-70 -44 -73
-59 -73 -366 l0 -270 59 37 60 37 3 127 3 126 110 -61 c150 -85 202 -83 269 7
20 26 21 42 24 325 3 296 3 297 -20 331 -26 39 -61 64 -297 209 l-164 101 -97
0 -97 0 -204 -126z m507 -90 c88 -53 177 -108 199 -123 l40 -27 3 -267 2 -267
-22 0 c-21 0 -242 123 -253 141 -15 23 12 49 106 104 55 32 102 62 105 66 3 5
-83 67 -191 139 l-195 130 -195 -130 c-108 -72 -193 -135 -190 -140 3 -5 50
-35 105 -67 93 -54 120 -79 106 -102 -11 -18 -234 -141 -255 -141 l-21 0 2
267 3 267 95 60 c267 168 300 186 350 186 42 0 65 -10 206 -96z" fill="rgb(140, 186, 81)"/>
<path d="M3529 1154 c-112 -69 -215 -136 -227 -147 -51 -47 -52 -56 -52 -365
0 -283 0 -290 23 -322 36 -54 72 -75 125 -74 39 1 65 11 150 62 57 34 106 62
108 62 2 0 4 -56 4 -125 l0 -124 60 -41 60 -41 0 272 c0 306 -2 318 -71 364
l-40 26 23 18 c13 10 49 34 81 54 l57 37 81 -54 81 -54 -39 -25 c-70 -44 -73
-59 -73 -366 l0 -270 59 37 60 37 3 127 3 126 110 -61 c150 -85 202 -83 269 7
20 26 21 42 24 325 3 296 3 297 -20 331 -26 39 -61 64 -297 209 l-164 101 -97
0 -97 0 -204 -126z m507 -90 c88 -53 177 -108 199 -123 l40 -27 3 -267 2 -267
-22 0 c-21 0 -242 123 -253 141 -15 23 12 49 106 104 55 32 102 62 105 66 3 5
-83 67 -191 139 l-195 130 -195 -130 c-108 -72 -193 -135 -190 -140 3 -5 50
-35 105 -67 93 -54 120 -79 106 -102 -11 -18 -234 -141 -255 -141 l-21 0 2
267 3 267 95 60 c267 168 300 186 350 186 42 0 65 -10 206 -96z" />
<path d="M6079 1154 c-112 -69 -215 -136 -227 -147 -51 -47 -52 -56 -52 -365
0 -283 0 -290 23 -322 36 -53 72 -75 125 -75 39 1 64 11 150 63 57 34 106 62
108 62 2 0 4 -56 4 -125 l0 -124 60 -41 60 -41 0 272 c0 306 -2 318 -71 364
l-40 26 23 18 c13 10 49 34 81 54 l57 37 81 -54 81 -54 -39 -25 c-70 -44 -73
-59 -73 -366 l0 -270 59 37 60 37 3 127 3 126 110 -61 c150 -84 202 -83 269 7
20 26 21 42 24 325 3 296 3 297 -20 331 -26 39 -61 64 -297 209 l-164 101 -97
0 -97 0 -204 -126z m507 -90 c88 -53 177 -108 199 -123 l40 -27 3 -267 2 -267
-21 0 c-21 0 -244 123 -255 141 -14 23 13 50 107 104 55 32 102 62 105 66 3 5
-83 67 -191 139 l-195 130 -195 -130 c-108 -72 -193 -135 -190 -140 3 -5 50
-35 105 -67 93 -54 120 -79 105 -102 -11 -18 -232 -141 -253 -141 l-22 0 2
267 3 267 95 60 c268 169 300 186 350 186 43 0 65 -10 206 -96z" fill="rgb(140, 186, 81)"/>
<path d="M8639 1154 c-112 -69 -215 -136 -227 -147 -51 -47 -52 -56 -52 -365
0 -283 0 -290 23 -322 36 -53 72 -75 125 -75 39 1 64 11 150 63 57 34 106 62
108 62 2 0 4 -56 4 -125 l0 -124 60 -41 60 -41 0 272 c0 306 -2 318 -71 364
l-40 26 23 18 c13 10 49 34 81 54 l57 37 81 -54 81 -54 -39 -25 c-70 -44 -73
-59 -73 -366 l0 -270 59 37 60 37 3 127 3 126 110 -61 c150 -84 202 -83 269 7
20 26 21 42 24 325 3 296 3 297 -20 331 -26 39 -61 64 -297 209 l-164 101 -97
0 -97 0 -204 -126z m507 -90 c88 -53 177 -108 199 -123 l40 -27 3 -267 2 -267
-21 0 c-21 0 -244 123 -255 141 -14 23 13 50 107 104 55 32 102 62 105 66 3 5
-83 67 -191 139 l-195 130 -195 -130 c-108 -72 -193 -135 -190 -140 3 -5 50
-35 105 -67 93 -54 120 -79 105 -102 -11 -18 -232 -141 -253 -141 l-22 0 2
267 3 267 95 60 c268 169 300 186 350 186 43 0 65 -10 206 -96z"/>
<path d="M40 989 c0 -307 3 -322 72 -365 l39 -25 -38 -28 c-21 -15 -55 -37
-75 -50 l-38 -23 0 -74 c0 -58 3 -73 12 -68 7 4 94 61 192 127 l179 119 -24
19 c-13 10 -61 39 -107 66 -77 44 -101 70 -87 92 11 18 232 141 253 141 l22 0
-2 -267 -3 -268 -190 -118 c-104 -65 -202 -121 -217 -124 -27 -5 -28 -8 -28
-64 l0 -59 43 0 c37 0 69 16 238 119 224 137 265 169 280 220 6 23 9 137 7
318 -3 266 -4 283 -24 309 -36 49 -72 69 -122 68 -39 0 -65 -11 -152 -62
l-105 -62 -3 125 -3 125 -59 40 -60 41 0 -272z"/>
<path d="M2438 1221 l-57 -36 -1 -128 0 -129 -62 37 c-35 20 -91 50 -126 67
-73 35 -112 33 -163 -9 -56 -48 -59 -64 -59 -376 0 -279 0 -285 23 -318 25
-38 61 -63 296 -208 l164 -101 97 0 96 0 195 119 c224 137 265 169 280 220 6
23 9 137 7 318 -3 266 -4 283 -24 309 -67 91 -126 92 -274 5 l-105 -61 -3 125
-3 125 -59 40 -60 41 0 -272 c0 -307 3 -322 73 -366 l39 -25 -81 -54 -81 -54
-80 53 -80 54 38 26 c70 46 73 60 70 364 l-3 269 -57 -35z m-181 -367 c62 -36
115 -70 118 -75 15 -23 -12 -49 -106 -104 -55 -32 -102 -62 -105 -66 -3 -5 83
-67 191 -139 l195 -130 195 130 c108 72 193 135 190 140 -3 5 -50 35 -105 67
-93 54 -120 79 -105 102 11 18 232 141 253 141 l22 0 -2 -267 -3 -267 -95 -60
c-267 -168 -300 -186 -350 -186 -42 0 -63 10 -176 78 -71 43 -154 94 -184 112
-98 60 -90 29 -90 327 l0 263 22 0 c12 0 72 -30 135 -66z"/>
<path d="M4998 1221 l-57 -36 -3 -127 -3 -127 -110 62 c-150 84 -202 83 -269
-7 -20 -26 -21 -43 -24 -319 -2 -198 1 -299 8 -318 19 -44 55 -71 269 -203
l204 -126 92 0 91 0 195 119 c106 65 209 132 228 147 59 49 61 64 61 377 0
278 0 285 -22 317 -37 54 -73 75 -126 74 -39 0 -65 -11 -152 -62 l-105 -62 -3
125 -3 125 -59 40 -60 41 0 -272 c0 -307 3 -322 72 -365 l39 -25 -38 -27 c-21
-15 -56 -39 -78 -53 l-40 -26 -78 52 -77 52 39 27 c70 49 72 60 69 363 l-3
269 -57 -35z m-181 -367 c62 -36 115 -70 118 -75 15 -23 -12 -49 -106 -104
-55 -32 -102 -62 -105 -66 -3 -5 82 -66 188 -137 l193 -129 194 130 194 129
-24 19 c-13 10 -61 39 -107 66 -77 44 -101 70 -87 92 11 18 232 141 253 141
l22 0 -2 -267 -3 -267 -95 -60 c-52 -33 -142 -88 -199 -123 -146 -89 -146 -89
-347 33 -88 53 -177 108 -199 123 l-40 27 -3 267 -2 267 22 0 c12 0 72 -30
135 -66z"/>
<path d="M7548 1221 l-57 -36 -3 -127 -3 -126 -110 61 c-150 84 -202 83 -269
-7 -20 -26 -21 -42 -24 -325 -3 -296 -3 -297 20 -331 26 -39 61 -64 297 -209
l164 -101 97 0 96 0 195 119 c223 136 265 169 280 220 6 23 9 137 7 318 -3
266 -4 283 -24 309 -37 50 -72 69 -122 68 -39 -1 -65 -11 -150 -62 -57 -34
-106 -62 -108 -62 -2 0 -4 56 -4 125 l0 124 -52 36 c-29 19 -56 35 -60 35 -5
0 -8 -120 -8 -266 0 -301 3 -317 73 -361 l39 -25 -81 -54 -81 -54 -80 53 -80
54 38 26 c70 46 73 60 70 364 l-3 269 -57 -35z m-181 -367 c62 -36 115 -70
118 -75 15 -23 -12 -49 -114 -109 l-109 -65 199 -133 199 -132 195 130 c108
72 193 135 190 139 -3 5 -50 35 -105 67 -93 53 -120 80 -106 103 11 18 234
141 255 141 l21 0 -2 -267 -3 -267 -95 -60 c-267 -168 -300 -186 -350 -186
-42 0 -63 10 -176 78 -71 43 -154 94 -184 112 -98 60 -90 29 -90 327 l0 263
22 0 c12 0 72 -30 135 -66z"/>
<path d="M10108 1221 l-57 -36 -3 -127 -3 -126 -110 61 c-150 84 -202 83 -269
-7 -20 -26 -21 -43 -24 -319 -3 -310 -1 -325 46 -370 25 -22 351 -231 412
-262 22 -12 71 -19 108 -16 8 1 12 20 12 61 0 56 -1 60 -24 60 -13 0 -81 35
-152 78 -71 43 -154 94 -184 112 -98 60 -90 29 -90 327 l0 263 22 0 c21 0 242
-123 253 -141 15 -23 -13 -50 -115 -109 -60 -35 -108 -65 -107 -66 1 -1 91
-60 200 -133 l197 -131 0 75 0 75 -80 53 -80 54 39 27 c70 49 72 60 69 363
l-3 269 -57 -35z"/>
</g>
</svg>
